<?xml version='1.0' encoding='UTF-8' standalone='no'?>
<!-- Created with Fritzing (http://www.fritzing.org/) -->
<svg xmlns:svg='http://www.w3.org/2000/svg' xmlns='http://www.w3.org/2000/svg' version='1.2' baseProfile='tiny' x='0in' y='0in' width='4.28278in' height='2.7328in' viewBox='0 0 308.36 196.762' >
<g partID='854103210'><g transform='translate(34.4,30.0127)' ><g id="schematic">
<rect width="78.3" fill="#FFFFFF" stroke-linecap="round" class="interior rect" stroke-width="0.9" height="135.9" y="14.85" stroke="#000000" x="14.85"/>
<line fill="none" stroke-linecap="round" class="pin" x1="93.2499" stroke-width="0.699999" stroke="#787878" y2="28.8" x2="107.65" y1="28.8" id="connector61pin"/>
<text fill="#8c8c8c" class="text" font-size="3.49999" stroke-width="0" text-anchor="end" stroke="none" y="29.4999" x="91.8499" font-family="'Droid Sans'">D0/RX</text>
<g width="0.699999" fill="none" class="terminal" stroke-width="0" height="0.699999" y="28.4499" stroke="none" x="107.65" id="connector61terminal"/>
<line fill="none" stroke-linecap="round" class="pin" x1="93.2499" stroke-width="0.699999" stroke="#787878" y2="36" x2="107.65" y1="36" id="connector62pin"/>
<text fill="#8c8c8c" class="text" font-size="3.49999" stroke-width="0" text-anchor="end" stroke="none" y="36.6999" x="91.8499" font-family="'Droid Sans'">D1/TX</text>
<g width="0.699999" fill="none" class="terminal" stroke-width="0" height="0.699999" y="35.6499" stroke="none" x="107.65" id="connector62terminal"/>
<line fill="none" stroke-linecap="round" class="pin" x1="93.2499" stroke-width="0.699999" stroke="#787878" y2="43.2" x2="107.65" y1="43.2" id="connector63pin"/>
<text fill="#8c8c8c" class="text" font-size="3.49999" stroke-width="0" text-anchor="end" stroke="none" y="43.8999" x="91.8499" font-family="'Droid Sans'">D2</text>
<g width="0.699999" fill="none" class="terminal" stroke-width="0" height="0.699999" y="42.8499" stroke="none" x="107.65" id="connector63terminal"/>
<line fill="none" stroke-linecap="round" class="pin" x1="93.2499" stroke-width="0.699999" stroke="#787878" y2="50.4" x2="107.65" y1="50.4" id="connector64pin"/>
<text fill="#8c8c8c" class="text" font-size="3.49999" stroke-width="0" text-anchor="end" stroke="none" y="51.0999" x="91.8499" font-family="'Droid Sans'">D3 PWM</text>
<g width="0.699999" fill="none" class="terminal" stroke-width="0" height="0.699999" y="50.0499" stroke="none" x="107.65" id="connector64terminal"/>
<line fill="none" stroke-linecap="round" class="pin" x1="93.2499" stroke-width="0.699999" stroke="#787878" y2="57.6" x2="107.65" y1="57.6" id="connector65pin"/>
<text fill="#8c8c8c" class="text" font-size="3.49999" stroke-width="0" text-anchor="end" stroke="none" y="58.2999" x="91.8499" font-family="'Droid Sans'">D4</text>
<g width="0.699999" fill="none" class="terminal" stroke-width="0" height="0.699999" y="57.2499" stroke="none" x="107.65" id="connector65terminal"/>
<line fill="none" stroke-linecap="round" class="pin" x1="93.2499" stroke-width="0.699999" stroke="#787878" y2="64.8" x2="107.65" y1="64.8" id="connector66pin"/>
<text fill="#8c8c8c" class="text" font-size="3.49999" stroke-width="0" text-anchor="end" stroke="none" y="65.4999" x="91.8499" font-family="'Droid Sans'">D5 PWM</text>
<g width="0.699999" fill="none" class="terminal" stroke-width="0" height="0.699999" y="64.4499" stroke="none" x="107.65" id="connector66terminal"/>
<line fill="none" stroke-linecap="round" class="pin" x1="93.2499" stroke-width="0.699999" stroke="#787878" y2="72" x2="107.65" y1="72" id="connector67pin"/>
<text fill="#8c8c8c" class="text" font-size="3.49999" stroke-width="0" text-anchor="end" stroke="none" y="72.6999" x="91.8499" font-family="'Droid Sans'">D6 PWM</text>
<g width="0.699999" fill="none" class="terminal" stroke-width="0" height="0.699999" y="71.6499" stroke="none" x="107.65" id="connector67terminal"/>
<line fill="none" stroke-linecap="round" class="pin" x1="93.2499" stroke-width="0.699999" stroke="#787878" y2="79.2" x2="107.65" y1="79.2" id="connector68pin"/>
<text fill="#8c8c8c" class="text" font-size="3.49999" stroke-width="0" text-anchor="end" stroke="none" y="79.8999" x="91.8499" font-family="'Droid Sans'">D7</text>
<g width="0.699999" fill="none" class="terminal" stroke-width="0" height="0.699999" y="78.8499" stroke="none" x="107.65" id="connector68terminal"/>
<line fill="none" stroke-linecap="round" class="pin" x1="93.2499" stroke-width="0.699999" stroke="#787878" y2="86.4" x2="107.65" y1="86.4" id="connector51pin"/>
<text fill="#8c8c8c" class="text" font-size="3.49999" stroke-width="0" text-anchor="end" stroke="none" y="87.0999" x="91.8499" font-family="'Droid Sans'">D8</text>
<g width="0.699999" fill="none" class="terminal" stroke-width="0" height="0.699999" y="86.0499" stroke="none" x="107.65" id="connector51terminal"/>
<line fill="none" stroke-linecap="round" class="pin" x1="93.2499" stroke-width="0.699999" stroke="#787878" y2="93.6" x2="107.65" y1="93.6" id="connector52pin"/>
<text fill="#8c8c8c" class="text" font-size="3.49999" stroke-width="0" text-anchor="end" stroke="none" y="94.2999" x="91.8499" font-family="'Droid Sans'">D9 PWM</text>
<g width="0.699999" fill="none" class="terminal" stroke-width="0" height="0.699999" y="93.2499" stroke="none" x="107.65" id="connector52terminal"/>
<line fill="none" stroke-linecap="round" class="pin" x1="93.2499" stroke-width="0.699999" stroke="#787878" y2="100.8" x2="107.65" y1="100.8" id="connector53pin"/>
<text fill="#8c8c8c" class="text" font-size="3.49999" stroke-width="0" text-anchor="end" stroke="none" y="101.5" x="91.8499" font-family="'Droid Sans'">D10 PWM/SS</text>
<g width="0.699999" fill="none" class="terminal" stroke-width="0" height="0.699999" y="100.45" stroke="none" x="107.65" id="connector53terminal"/>
<line fill="none" stroke-linecap="round" class="pin" x1="93.2499" stroke-width="0.699999" stroke="#787878" y2="108" x2="107.65" y1="108" id="connector54pin"/>
<text fill="#8c8c8c" class="text" font-size="3.49999" stroke-width="0" text-anchor="end" stroke="none" y="108.7" x="91.8499" font-family="'Droid Sans'">D11 PWM/MOSI</text>
<g width="0.699999" fill="none" class="terminal" stroke-width="0" height="0.699999" y="107.65" stroke="none" x="107.65" id="connector54terminal"/>
<line fill="none" stroke-linecap="round" class="pin" x1="93.2499" stroke-width="0.699999" stroke="#787878" y2="115.2" x2="107.65" y1="115.2" id="connector55pin"/>
<text fill="#8c8c8c" class="text" font-size="3.49999" stroke-width="0" text-anchor="end" stroke="none" y="115.9" x="91.8499" font-family="'Droid Sans'">D12/MISO</text>
<g width="0.699999" fill="none" class="terminal" stroke-width="0" height="0.699999" y="114.85" stroke="none" x="107.65" id="connector55terminal"/>
<line fill="none" stroke-linecap="round" class="pin" x1="93.2499" stroke-width="0" stroke="none" y2="122.4" x2="107.65" y1="122.4" id="connector41pin"/>
<rect width="0.699999" fill="none" class="terminal" stroke-width="0" height="0.699999" y="122.05" stroke="none" x="107.65" id="connector41terminal"/>
<line fill="none" stroke-linecap="round" class="pin" x1="93.2499" stroke-width="0.699999" stroke="#787878" y2="122.4" x2="107.65" y1="122.4" id="connector56pin"/>
<text fill="#8c8c8c" class="text" font-size="3.49999" stroke-width="0" text-anchor="end" stroke="none" y="123.1" x="91.8499" font-family="'Droid Sans'">D13/SCK</text>
<g width="0.699999" fill="none" class="terminal" stroke-width="0" height="0.699999" y="122.05" stroke="none" x="107.65" id="connector56terminal"/>
<line fill="none" stroke-linecap="round" class="pin" x1="0.349999" stroke-width="0" stroke="none" y2="28.8" x2="14.75" y1="28.8" id="connector43pin"/>
<rect width="0.699999" fill="none" class="terminal" stroke-width="0" height="0.699999" y="28.4499" stroke="none" x="-0.349999" id="connector43terminal"/>
<line fill="none" stroke-linecap="round" class="pin" x1="0.349999" stroke-width="0.699999" stroke="#787878" y2="28.8" x2="14.75" y1="28.8" id="connector85pin"/>
<text fill="#8c8c8c" class="text" font-size="3.49999" stroke-width="0" text-anchor="start" stroke="none" y="29.4999" x="16.15" font-family="'Droid Sans'">RESET</text>
<g width="0.699999" fill="none" class="terminal" stroke-width="0" height="0.699999" y="28.4499" stroke="none" x="-0.349999" id="connector85terminal"/>
<line fill="none" stroke-linecap="round" class="pin" x1="0.349999" stroke-width="0.699999" stroke="#787878" y2="36" x2="14.75" y1="36" id="connector49pin"/>
<text fill="#8c8c8c" class="text" font-size="3.49999" stroke-width="0" text-anchor="start" stroke="none" y="36.6999" x="16.15" font-family="'Droid Sans'">RESET2</text>
<rect width="0.699999" fill="none" class="terminal" stroke-width="0" height="0.699999" y="35.6499" stroke="none" x="-0.349999" id="connector49terminal"/>
<line fill="none" stroke-linecap="round" class="pin" x1="0.349999" stroke-width="0.699999" stroke="#787878" y2="43.2" x2="14.75" y1="43.2" id="connector58pin"/>
<text fill="#8c8c8c" class="text" font-size="3.49999" stroke-width="0" text-anchor="start" stroke="none" y="43.8999" x="16.15" font-family="'Droid Sans'">AREF</text>
<g width="0.699999" fill="none" class="terminal" stroke-width="0" height="0.699999" y="42.8499" stroke="none" x="-0.349999" id="connector58terminal"/>
<line fill="none" stroke-linecap="round" class="pin" x1="0.349999" stroke-width="0.699999" stroke="#787878" y2="50.4" x2="14.75" y1="50.4" id="connector84pin"/>
<text fill="#8c8c8c" class="text" font-size="3.49999" stroke-width="0" text-anchor="start" stroke="none" y="51.0999" x="16.15" font-family="'Droid Sans'">ioref</text>
<g width="0.699999" fill="none" class="terminal" stroke-width="0" height="0.699999" y="50.0499" stroke="none" x="-0.349999" id="connector84terminal"/>
<line fill="none" stroke-linecap="round" class="pin" x1="0.349999" stroke-width="0.699999" stroke="#787878" y2="64.8" x2="14.75" y1="64.8" id="connector0pin"/>
<text fill="#8c8c8c" class="text" font-size="3.49999" stroke-width="0" text-anchor="start" stroke="none" y="65.4999" x="16.15" font-family="'Droid Sans'">A0</text>
<g width="0.699999" fill="none" class="terminal" stroke-width="0" height="0.699999" y="64.4499" stroke="none" x="-0.349999" id="connector0terminal"/>
<line fill="none" stroke-linecap="round" class="pin" x1="0.349999" stroke-width="0.699999" stroke="#787878" y2="72" x2="14.75" y1="72" id="connector1pin"/>
<text fill="#8c8c8c" class="text" font-size="3.49999" stroke-width="0" text-anchor="start" stroke="none" y="72.6999" x="16.15" font-family="'Droid Sans'">A1</text>
<g width="0.699999" fill="none" class="terminal" stroke-width="0" height="0.699999" y="71.6499" stroke="none" x="-0.349999" id="connector1terminal"/>
<line fill="none" stroke-linecap="round" class="pin" x1="0.349999" stroke-width="0.699999" stroke="#787878" y2="79.2" x2="14.75" y1="79.2" id="connector2pin"/>
<text fill="#8c8c8c" class="text" font-size="3.49999" stroke-width="0" text-anchor="start" stroke="none" y="79.8999" x="16.15" font-family="'Droid Sans'">A2</text>
<g width="0.699999" fill="none" class="terminal" stroke-width="0" height="0.699999" y="78.8499" stroke="none" x="-0.349999" id="connector2terminal"/>
<line fill="none" stroke-linecap="round" class="pin" x1="0.349999" stroke-width="0.699999" stroke="#787878" y2="86.4" x2="14.75" y1="86.4" id="connector3pin"/>
<text fill="#8c8c8c" class="text" font-size="3.49999" stroke-width="0" text-anchor="start" stroke="none" y="87.0999" x="16.15" font-family="'Droid Sans'">A3</text>
<g width="0.699999" fill="none" class="terminal" stroke-width="0" height="0.699999" y="86.0499" stroke="none" x="-0.349999" id="connector3terminal"/>
<line fill="none" stroke-linecap="round" class="pin" x1="0.349999" stroke-width="0" stroke="none" y2="93.6" x2="14.75" y1="93.6" id="connector48pin"/>
<rect width="0.699999" fill="none" class="terminal" stroke-width="0" height="0.699999" y="93.2499" stroke="none" x="-0.349999" id="connector48terminal"/>
<line fill="none" stroke-linecap="round" class="pin" x1="0.349999" stroke-width="0" stroke="none" y2="93.6" x2="14.75" y1="93.6" id="connector45pin"/>
<rect width="0.699999" fill="none" class="terminal" stroke-width="0" height="0.699999" y="93.2499" stroke="none" x="-0.349999" id="connector45terminal"/>
<line fill="none" stroke-linecap="round" class="pin" x1="0.349999" stroke-width="0" stroke="none" y2="93.6" x2="14.75" y1="93.6" id="connector4pin"/>
<g width="0.699999" fill="none" class="terminal" stroke-width="0" height="0.699999" y="93.2499" stroke="none" x="-0.349999" id="connector4terminal"/>
<line fill="none" stroke-linecap="round" class="pin" x1="0.349999" stroke-width="0" stroke="none" y2="93.6" x2="14.75" y1="93.6" id="connector39pin"/>
<rect width="0.699999" fill="none" class="terminal" stroke-width="0" height="0.699999" y="93.2499" stroke="none" x="-0.349999" id="connector39terminal"/>
<line fill="none" stroke-linecap="round" class="pin" x1="0.349999" stroke-width="0" stroke="none" y2="93.6" x2="14.75" y1="93.6" id="connector47pin"/>
<rect width="0.699999" fill="none" class="terminal" stroke-width="0" height="0.699999" y="93.2499" stroke="none" x="-0.349999" id="connector47terminal"/>
<line fill="none" stroke-linecap="round" class="pin" x1="0.349999" stroke-width="0" stroke="none" y2="93.6" x2="14.75" y1="93.6" id="connector42pin"/>
<rect width="0.699999" fill="none" class="terminal" stroke-width="0" height="0.699999" y="93.2499" stroke="none" x="-0.349999" id="connector42terminal"/>
<line fill="none" stroke-linecap="round" class="pin" x1="0.349999" stroke-width="0.699999" stroke="#787878" y2="93.6" x2="14.75" y1="93.6" id="connector59pin"/>
<text fill="#8c8c8c" class="text" font-size="3.49999" stroke-width="0" text-anchor="start" stroke="none" y="94.2999" x="16.15" font-family="'Droid Sans'">A4/SDA</text>
<g width="0.699999" fill="none" class="terminal" stroke-width="0" height="0.699999" y="93.2499" stroke="none" x="-0.349999" id="connector59terminal"/>
<line fill="none" stroke-linecap="round" class="pin" x1="0.349999" stroke-width="0" stroke="none" y2="100.8" x2="14.75" y1="100.8" id="connector5pin"/>
<g width="0.699999" fill="none" class="terminal" stroke-width="0" height="0.699999" y="100.45" stroke="none" x="-0.349999" id="connector5terminal"/>
<line fill="none" stroke-linecap="round" class="pin" x1="0.349999" stroke-width="0.699999" stroke="#787878" y2="100.8" x2="14.75" y1="100.8" id="connector60pin"/>
<text fill="#8c8c8c" class="text" font-size="3.49999" stroke-width="0" text-anchor="start" stroke="none" y="101.5" x="16.15" font-family="'Droid Sans'">A5/SCL</text>
<g width="0.699999" fill="none" class="terminal" stroke-width="0" height="0.699999" y="100.45" stroke="none" x="-0.349999" id="connector60terminal"/>
<line fill="none" stroke-linecap="round" class="pin" x1="0.349999" stroke-width="0.699999" stroke="#787878" y2="136.8" x2="14.75" y1="136.8" id="connector91pin"/>
<text fill="#8c8c8c" class="text" font-size="3.49999" stroke-width="0" text-anchor="start" stroke="none" y="137.5" x="16.15" font-family="'Droid Sans'">N/C</text>
<g width="0.699999" fill="none" class="terminal" stroke-width="0" height="0.699999" y="136.45" stroke="none" x="-0.349999" id="connector91terminal"/>
<line fill="none" stroke-linecap="round" class="pin" x1="57.6" stroke-width="0" stroke="none" y2="165.25" x2="57.6" y1="150.85" id="connector88pin"/>
<g width="0.699999" fill="none" class="terminal" stroke-width="0" height="0.699999" y="165.25" stroke="none" x="57.2499" id="connector88terminal"/>
<line fill="none" stroke-linecap="round" class="pin" x1="57.6" stroke-width="0" stroke="none" y2="165.25" x2="57.6" y1="150.85" id="connector57pin"/>
<g width="0.699999" fill="none" class="terminal" stroke-width="0" height="0.699999" y="165.25" stroke="none" x="57.2499" id="connector57terminal"/>
<line fill="none" stroke-linecap="round" class="pin" x1="57.6" stroke-width="0" stroke="none" y2="165.25" x2="57.6" y1="150.85" id="connector44pin"/>
<rect width="0.699999" fill="none" class="terminal" stroke-width="0" height="0.699999" y="165.25" stroke="none" x="57.2499" id="connector44terminal"/>
<line fill="none" stroke-linecap="round" class="pin" x1="57.6" stroke-width="0" stroke="none" y2="165.25" x2="57.6" y1="150.85" id="connector50pin"/>
<rect width="0.699999" fill="none" class="terminal" stroke-width="0" height="0.699999" y="165.25" stroke="none" x="57.2499" id="connector50terminal"/>
<line fill="none" stroke-linecap="round" class="pin" x1="57.6" stroke-width="0.699999" stroke="#787878" y2="165.25" x2="57.6" y1="150.85" id="connector89pin"/>
<g transform="matrix(1, 0, 0, 1, 58.2999, 149.45)">
<g>
<g transform="rotate(270)">
<g>
<text fill="#8c8c8c" class="text" font-size="3.49999" stroke-width="0" text-anchor="start" stroke="none" y="0" x="0" font-family="'Droid Sans'">GND</text>
</g>
</g>
</g>
</g>
<g width="0.699999" fill="none" class="terminal" stroke-width="0" height="0.699999" y="165.25" stroke="none" x="57.2499" id="connector89terminal"/>
<line fill="none" stroke-linecap="round" class="pin" x1="36" stroke-width="0.699999" stroke="#787878" y2="14.75" x2="36" y1="0.349999" id="connector86pin"/>
<g transform="matrix(1, 0, 0, 1, 36.6999, 16.15)">
<g>
<g transform="rotate(270)">
<g>
<text fill="#8c8c8c" class="text" font-size="3.49999" stroke-width="0" text-anchor="end" stroke="none" y="0" x="0" font-family="'Droid Sans'">3V3</text>
</g>
</g>
</g>
</g>
<g width="0.699999" fill="none" class="terminal" stroke-width="0" height="0.699999" y="-0.349999" stroke="none" x="35.6499" id="connector86terminal"/>
<line fill="none" stroke-linecap="round" class="pin" x1="50.4" stroke-width="0" stroke="none" y2="14.75" x2="50.4" y1="0.349999" id="connector40pin"/>
<rect width="0.699999" fill="none" class="terminal" stroke-width="0" height="0.699999" y="-0.349999" stroke="none" x="50.0499" id="connector40terminal"/>
<line fill="none" stroke-linecap="round" class="pin" x1="50.4" stroke-width="0" stroke="none" y2="14.75" x2="50.4" y1="0.349999" id="connector46pin"/>
<rect width="0.699999" fill="none" class="terminal" stroke-width="0" height="0.699999" y="-0.349999" stroke="none" x="50.0499" id="connector46terminal"/>
<line fill="none" stroke-linecap="round" class="pin" x1="50.4" stroke-width="0.699999" stroke="#787878" y2="14.75" x2="50.4" y1="0.349999" id="connector87pin"/>
<g transform="matrix(1, 0, 0, 1, 51.0999, 16.15)">
<g>
<g transform="rotate(270)">
<g>
<text fill="#8c8c8c" class="text" font-size="3.49999" stroke-width="0" text-anchor="end" stroke="none" y="0" x="0" font-family="'Droid Sans'">5V</text>
</g>
</g>
</g>
</g>
<g width="0.699999" fill="none" class="terminal" stroke-width="0" height="0.699999" y="-0.349999" stroke="none" x="50.0499" id="connector87terminal"/>
<line fill="none" stroke-linecap="round" class="pin" x1="64.8" stroke-width="0.699999" stroke="#787878" y2="14.75" x2="64.8" y1="0.349999" id="connector90pin"/>
<g transform="matrix(1, 0, 0, 1, 65.4999, 16.15)">
<g>
<g transform="rotate(270)">
<g>
<text fill="#8c8c8c" class="text" font-size="3.49999" stroke-width="0" text-anchor="end" stroke="none" y="0" x="0" font-family="'Droid Sans'">VIN</text>
</g>
</g>
</g>
</g>
<g width="0.699999" fill="none" class="terminal" stroke-width="0" height="0.699999" y="-0.349999" stroke="none" x="64.4499" id="connector90terminal"/>
<text fill="#000000" class="text" font-size="4.25001" stroke-width="0" text-anchor="middle" stroke="none" y="76.4498" x="54.4501" font-family="'Droid Sans'" id="label">Arduino</text>
<text fill="#000000" class="text" font-size="4.25001" stroke-width="0" text-anchor="middle" stroke="none" y="80.9833" x="54.4501" font-family="'Droid Sans'" id="label">Uno</text>
<text fill="#000000" class="text" font-size="4.25001" stroke-width="0" text-anchor="middle" stroke="none" y="85.5167" x="54.4501" font-family="'Droid Sans'" id="label">(Rev3)</text>
</g>
</g></g><g partID='57730'><g transform='translate(286.05,130.463)' ><g id="schematic">
<line stroke-linecap="round" class="other" x1="14.75" stroke-width="0.432" stroke="#000000" y2="10.43" x2="8.98999" y1="7.55002"/>
<line stroke-linecap="round" class="other" x1="12.59" stroke-width="0.432" stroke="#000000" y2="21.9501" x2="14.75" y1="19.0701"/>
<line stroke-linecap="round" class="other" x1="14.75" stroke-width="0.432" stroke="#000000" y2="21.9501" x2="11.15" y1="21.9501"/>
<line stroke-linecap="round" class="other" x1="11.15" stroke-width="0.432" stroke="#000000" y2="19.0701" x2="12.59" y1="21.9501"/>
<line stroke-linecap="round" class="other" x1="11.9153" stroke-width="0.432" stroke="#000000" y2="18.7866" x2="8.42306" y1="20.5327"/>
<line stroke-linecap="round" class="other" x1="11.87" stroke-width="0.72" stroke="#000000" y2="21.5901" x2="14.03" y1="21.5901"/>
<line stroke-linecap="round" class="other" x1="14.03" stroke-width="0.72" stroke="#000000" y2="19.7901" x2="12.59" y1="21.5901"/>
<line stroke-linecap="round" class="other" x1="12.59" stroke-width="0.72" stroke="#000000" y2="21.2301" x2="11.87" y1="19.7901"/>
<line stroke-linecap="round" class="other" x1="11.87" stroke-width="0.72" stroke="#000000" y2="21.2301" x2="12.95" y1="21.2301"/>
<line stroke-linecap="round" class="other" x1="12.95" stroke-width="0.72" stroke="#000000" y2="20.5101" x2="12.59" y1="21.2301"/>
<rect width="2.16" fill="#000000" stroke-linecap="round" class="other" stroke-width="0" height="14.4001" y="7.55002" stroke="none" x="6.82999"/>
<line connectorname="B" stroke-linecap="round" class="pin" x1="0.349999" stroke-width="0.699999" stroke="#787878" y2="14.75" x2="7.54999" y1="14.75" id="connector0pin"/>
<g width="0.000283465" fill="none" class="terminal" stroke-width="0" height="0.000283466" y="14.75" stroke="none" x="0.349999" id="connector0terminal"/>
<text fill="#8c8c8c" class="text" font-size="2.5" stroke-width="0" text-anchor="middle" stroke="none" y="13.7001" x="3.94999" font-family="'Droid Sans'">1</text>
<line connectorname="E" stroke-linecap="round" class="pin" x1="14.75" stroke-width="0.699999" stroke="#787878" y2="21.9501" x2="14.75" y1="29.1502" id="connector2pin"/>
<g width="0.000283465" fill="none" class="terminal" stroke-width="0" height="0.000283466" y="29.1502" stroke="none" x="14.75" id="connector2terminal"/>
<g transform="matrix(1, 0, 0, 1, 13.7, 25.5501)">
<g>
<g transform="rotate(270)">
<g>
<text fill="#8c8c8c" class="text" font-size="2.5" stroke-width="0" text-anchor="middle" stroke="none" y="0" x="0" font-family="'Droid Sans'">2</text>
</g>
</g>
</g>
</g>
<line connectorname="C" stroke-linecap="round" class="pin" x1="14.75" stroke-width="0.699999" stroke="#787878" y2="7.55002" x2="14.75" y1="0.350001" id="connector1pin"/>
<g width="0.000283465" fill="none" class="terminal" stroke-width="0" height="0.000283466" y="0.350001" stroke="none" x="14.75" id="connector1terminal"/>
<g transform="matrix(1, 0, 0, 1, 13.7, 3.95001)">
<g>
<g transform="rotate(270)">
<g>
<text fill="#8c8c8c" class="text" font-size="2.5" stroke-width="0" text-anchor="middle" stroke="none" y="0" x="0" font-family="'Droid Sans'">3</text>
</g>
</g>
</g>
</g>
</g>
</g></g><g partID='854103240'><g transform='translate(214.05,142.117)' ><g xmlns="http://www.w3.org/2000/svg" id="schematic">
<line stroke-linecap="round" class="other" x1="7.55002" stroke-width="0.432002" stroke="#000000" y2="0.216" x2="8.63003" y1="3.096" xmlns="http://www.w3.org/2000/svg"/>
<line stroke-linecap="round" class="other" x1="8.63003" stroke-width="0.432002" stroke="#000000" y2="5.976" x2="10.43" y1="0.216" xmlns="http://www.w3.org/2000/svg"/>
<line stroke-linecap="round" class="other" x1="10.43" stroke-width="0.432002" stroke="#000000" y2="0.216" x2="12.23" y1="5.976" xmlns="http://www.w3.org/2000/svg"/>
<line stroke-linecap="round" class="other" x1="12.23" stroke-width="0.432002" stroke="#000000" y2="5.976" x2="14.03" y1="0.216" xmlns="http://www.w3.org/2000/svg"/>
<line stroke-linecap="round" class="other" x1="14.03" stroke-width="0.432002" stroke="#000000" y2="0.216" x2="15.8301" y1="5.976" xmlns="http://www.w3.org/2000/svg"/>
<line stroke-linecap="round" class="other" x1="15.8301" stroke-width="0.432002" stroke="#000000" y2="5.976" x2="17.6301" y1="0.216" xmlns="http://www.w3.org/2000/svg"/>
<line stroke-linecap="round" class="other" x1="17.6301" stroke-width="0.432002" stroke="#000000" y2="0.216" x2="19.4301" y1="5.976" xmlns="http://www.w3.org/2000/svg"/>
<line stroke-linecap="round" class="other" x1="19.4301" stroke-width="0.432002" stroke="#000000" y2="5.976" x2="21.2301" y1="0.216" xmlns="http://www.w3.org/2000/svg"/>
<line stroke-linecap="round" class="other" x1="21.2301" stroke-width="0.432002" stroke="#000000" y2="3.096" x2="21.9501" y1="5.976" xmlns="http://www.w3.org/2000/svg"/>
<line connectorname="2" stroke-linecap="round" class="pin" x1="29.1502" stroke-width="0.700001" stroke="#787878" y2="3.096" x2="21.9501" y1="3.096" xmlns="http://www.w3.org/2000/svg" id="connector1pin"/>
<g width="0.000283466" fill="none" class="terminal" stroke-width="0" height="0.000283465" y="3.096" stroke="none" x="29.1502" xmlns="http://www.w3.org/2000/svg" id="connector1terminal"/>
<text fill="#8c8c8c" class="text" font-size="2.50001" stroke-width="0" text-anchor="middle" stroke="none" y="2.046" x="25.5501" font-family="'Droid Sans'" xmlns="http://www.w3.org/2000/svg">2</text>
<line connectorname="1" stroke-linecap="round" class="pin" x1="0.350001" stroke-width="0.700001" stroke="#787878" y2="3.096" x2="7.55002" y1="3.096" xmlns="http://www.w3.org/2000/svg" id="connector0pin"/>
<g width="0.000283466" fill="none" class="terminal" stroke-width="0" height="0.000283465" y="3.096" stroke="none" x="0.350001" xmlns="http://www.w3.org/2000/svg" id="connector0terminal"/>
<text fill="#8c8c8c" class="text" font-size="2.50001" stroke-width="0" text-anchor="middle" stroke="none" y="2.046" x="3.95001" font-family="'Droid Sans'" xmlns="http://www.w3.org/2000/svg">1</text>
</g>
</g></g><g partID='854124890'><g transform='translate(296.84,87.2625)' ><g id="schematic">
<line stroke-linecap="round" class="other" x1="0.36" stroke-width="0.72" stroke="#000000" y2="7.54999" x2="7.56" y1="7.54999"/>
<line stroke-linecap="round" class="other" x1="7.56" stroke-width="0.72" stroke="#000000" y2="14.75" x2="3.96" y1="7.54999"/>
<line stroke-linecap="round" class="other" x1="3.96" stroke-width="0.72" stroke="#000000" y2="7.54999" x2="0.36" y1="14.75"/>
<line stroke-linecap="round" class="other" x1="0.36" stroke-width="0.72" stroke="#000000" y2="14.75" x2="7.56" y1="14.75"/>
<line stroke-linecap="round" class="other" x1="11.16" stroke-width="0.72" stroke="#000000" y2="12.59" x2="7.56" y1="16.19"/>
<line stroke-linecap="round" class="other" x1="11.16" stroke-width="0.72" stroke="#000000" y2="14.03" x2="10.44" y1="16.19"/>
<line stroke-linecap="round" class="other" x1="11.16" stroke-width="0.72" stroke="#000000" y2="15.47" x2="9" y1="16.19"/>
<line stroke-linecap="round" class="other" x1="11.16" stroke-width="0.72" stroke="#000000" y2="9.70999" x2="7.56" y1="13.31"/>
<line stroke-linecap="round" class="other" x1="11.16" stroke-width="0.72" stroke="#000000" y2="11.15" x2="10.44" y1="13.31"/>
<line stroke-linecap="round" class="other" x1="11.16" stroke-width="0.72" stroke="#000000" y2="12.59" x2="9" y1="13.31"/>
<line connectorname="A" stroke-linecap="round" class="pin" x1="3.96" stroke-width="0.699999" stroke="#787878" y2="7.54999" x2="3.96" y1="0.349999" id="connector0pin"/>
<g width="0.000283465" fill="none" class="terminal" stroke-width="0" height="0.000283465" y="0.349999" stroke="none" x="3.96" id="connector0terminal"/>
<g transform="matrix(1, 0, 0, 1, 2.90999, 3.94999)">
<g>
<g transform="rotate(270)">
<g>
<text fill="#8c8c8c" class="text" font-size="2.5" stroke-width="0" text-anchor="middle" stroke="none" y="0" x="0" font-family="'Droid Sans'">1</text>
</g>
</g>
</g>
</g>
<line connectorname="C" stroke-linecap="round" class="pin" x1="3.96" stroke-width="0.699999" stroke="#787878" y2="14.75" x2="3.96" y1="21.95" id="connector1pin"/>
<g width="0.000283465" fill="none" class="terminal" stroke-width="0" height="0.000283465" y="21.95" stroke="none" x="3.96" id="connector1terminal"/>
<g transform="matrix(1, 0, 0, 1, 2.90999, 18.35)">
<g>
<g transform="rotate(270)">
<g>
<text fill="#8c8c8c" class="text" font-size="2.5" stroke-width="0" text-anchor="middle" stroke="none" y="0" x="0" font-family="'Droid Sans'">2</text>
</g>
</g>
</g>
</g>
</g>
</g></g><g partID='854143040'><g transform='translate(199.566,142.151)' ><g transform='matrix(0,-1,-1,0,0,0)'  ><g id="schematic">
<path d="M36.565,22.3l-3.603,0c-0.192,0,-0.35,-0.156,-0.35,-0.35c0,-0.195,0.156,-0.353,0.35,-0.353l3.603,0c0.192,0,0.351,0.156,0.351,0.353C36.916,22.144,36.759,22.3,36.565,22.3z"/>
<path d="M32.964,22.3l-3.598,0c-0.193,0,-0.352,-0.156,-0.352,-0.35c0,-0.195,0.156,-0.353,0.352,-0.353l3.598,0c0.193,0,0.35,0.156,0.35,0.353C33.313,22.144,33.158,22.3,32.964,22.3z"/>
<polygon points="32.964,21.951,29.367,14.75,32.964,14.75,36.565,14.75" fill="#FFFFFF"/>
<path d="M32.964,22.732L28.8,14.399l8.332,0L32.964,22.732zM29.933,15.1l3.031,6.067L36,15.1L29.933,15.1z"/>
<path d="M32.964,22.175c-0.125,0,-0.225,-0.103,-0.225,-0.225l0,-7.2c0,-0.124,0.1,-0.226,0.225,-0.226c0.123,0,0.225,0.102,0.225,0.226l0,7.201C33.188,22.073,33.087,22.175,32.964,22.175z"/>
<path d="M39.923,23.073c-0.059,0,-0.115,-0.021,-0.159,-0.063l-2.341,-2.34c-0.088,-0.088,-0.088,-0.23,0,-0.318c0.089,-0.088,0.229,-0.088,0.318,0l2.34,2.34c0.088,0.088,0.088,0.23,0,0.318C40.039,23.052,39.981,23.073,39.923,23.073z"/>
<path d="M39.563,26.314c-0.058,0,-0.114,-0.021,-0.157,-0.063l-2.341,-2.34c-0.089,-0.089,-0.089,-0.23,0,-0.318c0.088,-0.088,0.229,-0.088,0.317,0l2.34,2.34c0.088,0.088,0.088,0.23,0,0.318C39.679,26.292,39.621,26.314,39.563,26.314z"/>
<path d="M39.024,23.39l1.438,-1.438l1.08,2.521L39.024,23.39z"/>
<path d="M38.666,26.628l1.438,-1.439l1.08,2.521L38.666,26.628z"/>
<path d="M22.166,22.3l-3.6,0c-0.193,0,-0.35,-0.156,-0.35,-0.35c0,-0.195,0.157,-0.353,0.35,-0.353l3.6,0c0.192,0,0.35,0.156,0.35,0.353C22.515,22.144,22.358,22.3,22.166,22.3z"/>
<path d="M18.566,22.3l-3.601,0c-0.193,0,-0.35,-0.156,-0.35,-0.35c0,-0.195,0.157,-0.353,0.35,-0.353l3.601,0c0.193,0,0.35,0.156,0.35,0.353C18.916,22.144,18.759,22.3,18.566,22.3z"/>
<polygon points="18.566,21.951,14.965,14.75,18.566,14.75,22.166,14.75" fill="#FFFFFF"/>
<path d="M18.566,22.732l-4.167,-8.333l8.333,0L18.566,22.732zM15.531,15.1l3.035,6.067l3.033,-6.067L15.531,15.1z"/>
<path d="M18.566,22.175c-0.124,0,-0.225,-0.103,-0.225,-0.225l0,-7.2c0,-0.124,0.101,-0.226,0.225,-0.226s0.225,0.102,0.225,0.226l0,7.201C18.791,22.073,18.69,22.175,18.566,22.175z"/>
<path d="M18.566,15.1c-0.193,0,-0.35,-0.157,-0.35,-0.35l0,-7.2c0,-0.193,0.157,-0.35,0.35,-0.35s0.35,0.156,0.35,0.35l0,7.2C18.916,14.943,18.759,15.1,18.566,15.1z"/>
<path fill="none" d="M14.967,7.55L14.967,7.55L14.967,7.55z"/>
<path d="M25.524,23.073c-0.058,0,-0.114,-0.021,-0.157,-0.063l-2.343,-2.34c-0.088,-0.088,-0.088,-0.23,0,-0.318s0.229,-0.088,0.317,0l2.342,2.34c0.089,0.088,0.089,0.23,0,0.318C25.64,23.052,25.582,23.073,25.524,23.073z"/>
<path d="M25.164,26.314c-0.06,0,-0.115,-0.021,-0.16,-0.063l-2.34,-2.34c-0.088,-0.089,-0.088,-0.23,0,-0.318s0.229,-0.088,0.317,0l2.34,2.34c0.089,0.088,0.089,0.23,0,0.318C25.278,26.292,25.221,26.314,25.164,26.314z"/>
<path d="M24.623,23.39l1.438,-1.438l1.08,2.521L24.623,23.39z"/>
<path d="M24.266,26.628l1.438,-1.439l1.078,2.521L24.266,26.628z"/>
<path d="M7.766,22.3L4.165,22.3c-0.193,0,-0.35,-0.156,-0.35,-0.35c0,-0.195,0.157,-0.353,0.35,-0.353l3.601,0c0.193,0,0.35,0.156,0.35,0.353C8.116,22.144,7.959,22.3,7.766,22.3z"/>
<path d="M4.165,22.3L0.566,22.3c-0.193,0,-0.35,-0.156,-0.35,-0.35c0,-0.195,0.157,-0.353,0.35,-0.353l3.599,0c0.193,0,0.35,0.156,0.35,0.353C4.515,22.144,4.359,22.3,4.165,22.3z"/>
<polygon points="4.165,21.951,0.566,14.75,4.165,14.75,7.766,14.75" fill="#FFFFFF"/>
<path d="M4.165,22.732L0,14.4l8.333,0L4.165,22.732zM1.133,15.1l3.033,6.067L7.2,15.1L1.133,15.1z"/>
<path d="M4.165,22.175c-0.124,0,-0.225,-0.103,-0.225,-0.225l0,-7.2c0,-0.124,0.101,-0.226,0.225,-0.226S4.39,14.626,4.39,14.75l0,7.201C4.39,22.073,4.289,22.175,4.165,22.175z"/>
<path d="M32.964,15.1c-0.193,0,-0.35,-0.157,-0.35,-0.35L32.614,7.9L4.514,7.9l0,6.851c0,0.192,-0.157,0.35,-0.35,0.35s-0.35,-0.157,-0.35,-0.35L3.814,7.2l29.499,0l0,7.55C33.313,14.943,33.158,15.1,32.964,15.1z"/>
<path d="M11.123,23.073c-0.058,0,-0.115,-0.021,-0.159,-0.063l-2.339,-2.34c-0.088,-0.088,-0.088,-0.23,0,-0.318s0.23,-0.088,0.318,0l2.339,2.34c0.088,0.088,0.088,0.23,0,0.318C11.238,23.052,11.18,23.073,11.123,23.073z"/>
<path d="M10.764,26.314c-0.058,0,-0.115,-0.021,-0.159,-0.063l-2.341,-2.34c-0.088,-0.089,-0.088,-0.23,0,-0.318c0.088,-0.088,0.23,-0.088,0.318,0l2.341,2.34c0.088,0.088,0.088,0.23,0,0.318C10.879,26.292,10.821,26.314,10.764,26.314z"/>
<path d="M10.224,23.39l1.439,-1.438l1.08,2.521L10.224,23.39z"/>
<path d="M9.866,26.628l1.438,-1.439l1.08,2.521L9.866,26.628z"/>
<g>
<path fill="#787878" d="M32.964,29.5c-0.193,0,-0.35,-0.156,-0.35,-0.351l0,-7.198c0,-0.193,0.155,-0.353,0.35,-0.353c0.193,0,0.35,0.156,0.35,0.353l0,7.198C33.313,29.343,33.158,29.5,32.964,29.5z" id="connector2pin"/>
<g width="0.75" fill="none" height="2.397" y="27.167" x="18.163" id="connector3terminal"/>
<path fill="#787878" d="M18.566,29.5c-0.193,0,-0.35,-0.156,-0.35,-0.351l0,-7.198c0,-0.193,0.157,-0.353,0.35,-0.353s0.35,0.156,0.35,0.353l0,7.198C18.916,29.343,18.759,29.5,18.566,29.5z" id="connector3pin"/>
<path fill="#787878" d="M4.165,29.5c-0.193,0,-0.35,-0.156,-0.35,-0.351l0,-7.198c0,-0.193,0.157,-0.353,0.35,-0.353s0.35,0.156,0.35,0.353l0,7.198C4.515,29.343,4.359,29.5,4.165,29.5z" id="connector0pin"/>
<path fill="#787878" d="M18.567,7.9c-0.193,0,-0.35,-0.156,-0.35,-0.35l0,-7.2c0,-0.193,0.157,-0.35,0.35,-0.35s0.35,0.156,0.35,0.35l0,7.2C18.917,7.744,18.76,7.9,18.567,7.9z" id="connector1pin"/>
<g width="0.75" fill="none" height="2.398" y="0" x="18.205" id="connector1terminal"/>
<g width="0.75" fill="none" height="2.397" y="27.167" x="3.726" id="connector0terminal"/>
<g width="0.75" fill="none" height="2.397" y="27.167" x="32.664" id="connector2terminal"/>
</g>
<g transform="matrix(1, 0, 0, 1, 20.0259, 12.8435)">
<text fill="#787878" font-size="4.2315" font-family="'OCRAStd'">B</text>
</g>
<g transform="matrix(1, 0, 0, 1, 5.1924, 12.8435)">
<text fill="#787878" font-size="4.2315" font-family="'OCRAStd'">R</text>
</g>
<g transform="matrix(1, 0, 0, 1, 34.1919, 12.8435)">
<text fill="#787878" font-size="4.2315" font-family="'OCRAStd'">G</text>
</g>
</g>
</g></g></g><g partID='854138230'><line stroke-linecap='round' stroke='#404040' x1='300.64' y1='195.709' x2='91.9999' y2='195.613' stroke-width='0.699998' /></g><g partID='854138240'><line stroke-linecap='round' stroke='#404040' x1='300.8' y1='159.613' x2='300.64' y2='195.709' stroke-width='0.699998' /></g><circle  fill="black" cx="300.8" cy="159.613" r="1.44" stroke-width="0" stroke="none" /><g partID='854138350'><line stroke-linecap='round' stroke='#404040' x1='257.696' y1='159.453' x2='300.8' y2='159.613' stroke-width='0.699998' /></g><circle  fill="black" cx="300.8" cy="159.613" r="1.44" stroke-width="0" stroke="none" /><g partID='854138360'><line stroke-linecap='round' stroke='#404040' x1='257.717' y1='58.8199' x2='257.696' y2='159.453' stroke-width='0.699998' /></g><g partID='854138550'><line stroke-linecap='round' stroke='#cc1414' x1='257.696' y1='1.05107' x2='257.727' y2='44.409' stroke-width='0.699998' /></g><circle  fill="black" cx="257.727" cy="44.409" r="1.44" stroke-width="0" stroke="none" /><g partID='854138450'><line stroke-linecap='round' stroke='#cc1414' x1='84.6502' y1='1.20901' x2='257.696' y2='1.05107' stroke-width='0.699998' /></g><g partID='854138460'><line stroke-linecap='round' stroke='#cc1414' x1='84.7999' y1='30.0127' x2='84.6502' y2='1.20901' stroke-width='0.699998' /></g><g partID='854138740'><line stroke-linecap='round' stroke='#cc1414' x1='257.696' y1='1.05107' x2='257.727' y2='44.4091' stroke-width='0.699998' /></g><circle  fill="black" cx="257.727" cy="44.4091" r="1.44" stroke-width="0" stroke="none" /><g partID='854138660'><line stroke-linecap='round' stroke='#cc1414' x1='300.64' y1='1.05107' x2='257.696' y2='1.05107' stroke-width='0.699998' /></g><g partID='854138670'><line stroke-linecap='round' stroke='#cc1414' x1='300.8' y1='87.6127' x2='300.64' y2='1.05107' stroke-width='0.699998' /></g><g partID='854127320'><line stroke-linecap='round' stroke='#cc1414' x1='300.8' y1='130.813' x2='300.8' y2='109.213' stroke-width='0.699998' /></g><g partID='854127970'><line stroke-linecap='round' stroke='#fff800' x1='228.692' y1='51.6335' x2='257.6' y2='51.6127' stroke-width='0.699998' /></g><g partID='854127900'><line stroke-linecap='round' stroke='#fff800' x1='228.692' y1='73.2699' x2='228.692' y2='51.6337' stroke-width='0.699998' /></g><g partID='854127830'><line stroke-linecap='round' stroke='#fff800' x1='142.4' y1='73.2127' x2='228.692' y2='73.2699' stroke-width='0.699998' /></g><g partID='854128960'><line stroke-linecap='round' stroke='#ff7300' x1='286.4' y1='145.213' x2='243.2' y2='145.213' stroke-width='0.699998' /></g><g partID='854129100'><line stroke-linecap='round' stroke='#ff7300' x1='214.457' y1='80.3871' x2='214.4' y2='145.213' stroke-width='0.699998' /></g><g partID='854129030'><line stroke-linecap='round' stroke='#ff7300' x1='142.4' y1='80.4127' x2='214.457' y2='80.3871' stroke-width='0.699998' /></g><g partID='854149530'><line stroke-linecap='round' stroke='#cc1414' x1='156.833' y1='130.758' x2='142.4' y2='130.813' stroke-width='0.699998' /></g><g partID='854149420'><line stroke-linecap='round' stroke='#cc1414' x1='156.833' y1='166.849' x2='156.833' y2='130.758' stroke-width='0.699998' /></g><g partID='854149640'><line stroke-linecap='round' stroke='#cc1414' x1='207.361' y1='123.54' x2='207.361' y2='166.849' stroke-width='0.699998' /></g><g partID='854149480'><line stroke-linecap='round' stroke='#cc1414' x1='207.361' y1='166.849' x2='156.833' y2='166.849' stroke-width='0.699998' /></g><g partID='854149430'><line stroke-linecap='round' stroke='#cc1414' x1='198.367' y1='123.571' x2='207.361' y2='123.54' stroke-width='0.699998' /></g><g partID='854149690'><line stroke-linecap='round' stroke='#25cc35' x1='171.2' y1='109.112' x2='142.4' y2='116.413' stroke-width='0.699998' /></g><g partID='854149740'><line stroke-linecap='round' stroke='#418dd9' x1='171.2' y1='123.613' x2='142.4' y2='123.613' stroke-width='0.699998' /></g><g partID='854149810'><line stroke-linecap='round' stroke='#cc1414' x1='171.269' y1='137.976' x2='142.4' y2='138.013' stroke-width='0.699998' /></g><g partID='854149820'><line stroke-linecap='round' stroke='#cc1414' x1='171.2' y1='138.05' x2='171.269' y2='137.976' stroke-width='0.699998' /></g><g partID='57730' id='partLabel'><g transform='translate(273.25,137.663)' ><g transform='matrix(0,-1,1,0,0,0)'  ><g font-size='5' font-style='normal' font-weight='normal' fill='#000000' font-family="'DroidSans'" id='schematicLabel' fill-opacity='1' stroke='none' ><text x='0' y='3.75'>Q1</text></g></g></g></g><g partID='854103210' id='partLabel'><g transform='translate(0,58.8127)' ><g transform='matrix(0,-1,1,0,0,0)'  ><g font-size='5' font-style='normal' font-weight='normal' fill='#000000' font-family="'DroidSans'" id='schematicLabel' fill-opacity='1' stroke='none' ><text x='0' y='3.75'>Part1</text></g></g></g></g><g partID='854103240' id='partLabel'><g transform='translate(220.775,130.917)' ><g font-size='5' font-style='normal' font-weight='normal' fill='#000000' font-family="'DroidSans'" id='schematicLabel' fill-opacity='1' stroke='none' ><text x='0' y='3.75'>R1</text><text x='0' y='8.75'>470&#x3a9;</text></g></g></g><g partID='854111700' id='partLabel'><g transform='translate(255.928,32.7423)' ><g transform='matrix(0,-1,1,0,0,0)'  ><g font-size='5' font-style='normal' font-weight='normal' fill='#000000' font-family="'DroidSans'" id='schematicLabel' fill-opacity='1' stroke='none' ><text x='0' y='3.75'>IR1</text></g></g></g></g><g partID='854124890' id='partLabel'><g transform='translate(285.85,92.6525)' ><g transform='matrix(0,-1,1,0,0,0)'  ><g font-size='5' font-style='normal' font-weight='normal' fill='#000000' font-family="'DroidSans'" id='schematicLabel' fill-opacity='1' stroke='none' ><text x='0' y='3.75'>D1</text></g></g></g></g><g partID='854143040' id='partLabel'><g transform='translate(205.552,100.998)' ><g font-size='5' font-style='normal' font-weight='normal' fill='#000000' font-family="'DroidSans'" id='schematicLabel' fill-opacity='1' stroke='none' ><text x='0' y='3.75'>LED1</text></g></g></g></svg>